G04 EAGLE Gerber RS-274X export*
G75*
%MOMM*%
%FSLAX34Y34*%
%LPD*%
%IN*%
%IPPOS*%
%AMOC8*
5,1,8,0,0,1.08239X$1,22.5*%
G01*
%ADD10C,0.254000*%


D10*
X-302400Y0D02*
X-2400Y0D01*
X-2400Y1285000D01*
X-302400Y1285000D01*
X-302400Y0D01*
X-69775Y1088216D02*
X-69850Y1086601D01*
X-69999Y1084990D01*
X-70222Y1083389D01*
X-70520Y1081799D01*
X-70890Y1080225D01*
X-71332Y1078669D01*
X-71846Y1077136D01*
X-72431Y1075628D01*
X-73084Y1074148D01*
X-73805Y1072700D01*
X-74592Y1071287D01*
X-75443Y1069912D01*
X-76357Y1068578D01*
X-77332Y1067287D01*
X-78365Y1066043D01*
X-79454Y1064848D01*
X-80598Y1063704D01*
X-81793Y1062615D01*
X-83037Y1061582D01*
X-84328Y1060607D01*
X-85662Y1059693D01*
X-87037Y1058842D01*
X-88450Y1058055D01*
X-89898Y1057334D01*
X-91378Y1056681D01*
X-92886Y1056096D01*
X-94419Y1055582D01*
X-95975Y1055140D01*
X-97549Y1054770D01*
X-99139Y1054472D01*
X-100740Y1054249D01*
X-102351Y1054100D01*
X-103966Y1054025D01*
X-105584Y1054025D01*
X-107199Y1054100D01*
X-108810Y1054249D01*
X-110411Y1054472D01*
X-112001Y1054770D01*
X-113575Y1055140D01*
X-115131Y1055582D01*
X-116664Y1056096D01*
X-118173Y1056681D01*
X-119652Y1057334D01*
X-121100Y1058055D01*
X-122513Y1058842D01*
X-123888Y1059693D01*
X-125222Y1060607D01*
X-126513Y1061582D01*
X-127757Y1062615D01*
X-128952Y1063704D01*
X-130096Y1064848D01*
X-131185Y1066043D01*
X-132218Y1067287D01*
X-133193Y1068578D01*
X-134107Y1069912D01*
X-134958Y1071287D01*
X-135745Y1072700D01*
X-136466Y1074148D01*
X-137119Y1075628D01*
X-137704Y1077136D01*
X-138218Y1078669D01*
X-138660Y1080225D01*
X-139030Y1081799D01*
X-139328Y1083389D01*
X-139551Y1084990D01*
X-139700Y1086601D01*
X-139775Y1088216D01*
X-139775Y1089834D01*
X-139700Y1091449D01*
X-139551Y1093060D01*
X-139328Y1094661D01*
X-139030Y1096251D01*
X-138660Y1097825D01*
X-138218Y1099381D01*
X-137704Y1100914D01*
X-137119Y1102423D01*
X-136466Y1103902D01*
X-135745Y1105350D01*
X-134958Y1106763D01*
X-134107Y1108138D01*
X-133193Y1109472D01*
X-132218Y1110763D01*
X-131185Y1112007D01*
X-130096Y1113202D01*
X-128952Y1114346D01*
X-127757Y1115435D01*
X-126513Y1116468D01*
X-125222Y1117443D01*
X-123888Y1118357D01*
X-122513Y1119208D01*
X-121100Y1119995D01*
X-119652Y1120716D01*
X-118173Y1121369D01*
X-116664Y1121954D01*
X-115131Y1122468D01*
X-113575Y1122910D01*
X-112001Y1123280D01*
X-110411Y1123578D01*
X-108810Y1123801D01*
X-107199Y1123950D01*
X-105584Y1124025D01*
X-103966Y1124025D01*
X-102351Y1123950D01*
X-100740Y1123801D01*
X-99139Y1123578D01*
X-97549Y1123280D01*
X-95975Y1122910D01*
X-94419Y1122468D01*
X-92886Y1121954D01*
X-91378Y1121369D01*
X-89898Y1120716D01*
X-88450Y1119995D01*
X-87037Y1119208D01*
X-85662Y1118357D01*
X-84328Y1117443D01*
X-83037Y1116468D01*
X-81793Y1115435D01*
X-80598Y1114346D01*
X-79454Y1113202D01*
X-78365Y1112007D01*
X-77332Y1110763D01*
X-76357Y1109472D01*
X-75443Y1108138D01*
X-74592Y1106763D01*
X-73805Y1105350D01*
X-73084Y1103902D01*
X-72431Y1102423D01*
X-71846Y1100914D01*
X-71332Y1099381D01*
X-70890Y1097825D01*
X-70520Y1096251D01*
X-70222Y1094661D01*
X-69999Y1093060D01*
X-69850Y1091449D01*
X-69775Y1089834D01*
X-69775Y1088216D01*
X-190425Y954866D02*
X-190500Y953251D01*
X-190649Y951640D01*
X-190872Y950039D01*
X-191170Y948449D01*
X-191540Y946875D01*
X-191982Y945319D01*
X-192496Y943786D01*
X-193081Y942278D01*
X-193734Y940798D01*
X-194455Y939350D01*
X-195242Y937937D01*
X-196093Y936562D01*
X-197007Y935228D01*
X-197982Y933937D01*
X-199015Y932693D01*
X-200104Y931498D01*
X-201248Y930354D01*
X-202443Y929265D01*
X-203687Y928232D01*
X-204978Y927257D01*
X-206312Y926343D01*
X-207687Y925492D01*
X-209100Y924705D01*
X-210548Y923984D01*
X-212028Y923331D01*
X-213536Y922746D01*
X-215069Y922232D01*
X-216625Y921790D01*
X-218199Y921420D01*
X-219789Y921122D01*
X-221390Y920899D01*
X-223001Y920750D01*
X-224616Y920675D01*
X-226234Y920675D01*
X-227849Y920750D01*
X-229460Y920899D01*
X-231061Y921122D01*
X-232651Y921420D01*
X-234225Y921790D01*
X-235781Y922232D01*
X-237314Y922746D01*
X-238823Y923331D01*
X-240302Y923984D01*
X-241750Y924705D01*
X-243163Y925492D01*
X-244538Y926343D01*
X-245872Y927257D01*
X-247163Y928232D01*
X-248407Y929265D01*
X-249602Y930354D01*
X-250746Y931498D01*
X-251835Y932693D01*
X-252868Y933937D01*
X-253843Y935228D01*
X-254757Y936562D01*
X-255608Y937937D01*
X-256395Y939350D01*
X-257116Y940798D01*
X-257769Y942278D01*
X-258354Y943786D01*
X-258868Y945319D01*
X-259310Y946875D01*
X-259680Y948449D01*
X-259978Y950039D01*
X-260201Y951640D01*
X-260350Y953251D01*
X-260425Y954866D01*
X-260425Y956484D01*
X-260350Y958099D01*
X-260201Y959710D01*
X-259978Y961311D01*
X-259680Y962901D01*
X-259310Y964475D01*
X-258868Y966031D01*
X-258354Y967564D01*
X-257769Y969073D01*
X-257116Y970552D01*
X-256395Y972000D01*
X-255608Y973413D01*
X-254757Y974788D01*
X-253843Y976122D01*
X-252868Y977413D01*
X-251835Y978657D01*
X-250746Y979852D01*
X-249602Y980996D01*
X-248407Y982085D01*
X-247163Y983118D01*
X-245872Y984093D01*
X-244538Y985007D01*
X-243163Y985858D01*
X-241750Y986645D01*
X-240302Y987366D01*
X-238823Y988019D01*
X-237314Y988604D01*
X-235781Y989118D01*
X-234225Y989560D01*
X-232651Y989930D01*
X-231061Y990228D01*
X-229460Y990451D01*
X-227849Y990600D01*
X-226234Y990675D01*
X-224616Y990675D01*
X-223001Y990600D01*
X-221390Y990451D01*
X-219789Y990228D01*
X-218199Y989930D01*
X-216625Y989560D01*
X-215069Y989118D01*
X-213536Y988604D01*
X-212028Y988019D01*
X-210548Y987366D01*
X-209100Y986645D01*
X-207687Y985858D01*
X-206312Y985007D01*
X-204978Y984093D01*
X-203687Y983118D01*
X-202443Y982085D01*
X-201248Y980996D01*
X-200104Y979852D01*
X-199015Y978657D01*
X-197982Y977413D01*
X-197007Y976122D01*
X-196093Y974788D01*
X-195242Y973413D01*
X-194455Y972000D01*
X-193734Y970552D01*
X-193081Y969073D01*
X-192496Y967564D01*
X-191982Y966031D01*
X-191540Y964475D01*
X-191170Y962901D01*
X-190872Y961311D01*
X-190649Y959710D01*
X-190500Y958099D01*
X-190425Y956484D01*
X-190425Y954866D01*
X-25300Y745457D02*
X-25370Y744124D01*
X-25510Y742795D01*
X-25718Y741476D01*
X-25996Y740170D01*
X-26342Y738880D01*
X-26754Y737610D01*
X-27233Y736363D01*
X-27776Y735143D01*
X-28382Y733953D01*
X-29050Y732797D01*
X-29778Y731677D01*
X-30563Y730596D01*
X-31403Y729558D01*
X-32297Y728566D01*
X-33241Y727622D01*
X-34233Y726728D01*
X-35271Y725888D01*
X-36352Y725103D01*
X-37472Y724375D01*
X-38628Y723707D01*
X-39818Y723101D01*
X-41038Y722558D01*
X-42285Y722079D01*
X-43555Y721667D01*
X-44845Y721321D01*
X-46151Y721043D01*
X-47470Y720835D01*
X-48799Y720695D01*
X-50132Y720625D01*
X-51468Y720625D01*
X-52801Y720695D01*
X-54130Y720835D01*
X-55449Y721043D01*
X-56755Y721321D01*
X-58045Y721667D01*
X-59315Y722079D01*
X-60562Y722558D01*
X-61782Y723101D01*
X-62972Y723707D01*
X-64128Y724375D01*
X-65248Y725103D01*
X-66329Y725888D01*
X-67367Y726728D01*
X-68359Y727622D01*
X-69303Y728566D01*
X-70197Y729558D01*
X-71037Y730596D01*
X-71822Y731677D01*
X-72550Y732797D01*
X-73218Y733953D01*
X-73824Y735143D01*
X-74367Y736363D01*
X-74846Y737610D01*
X-75258Y738880D01*
X-75604Y740170D01*
X-75882Y741476D01*
X-76091Y742795D01*
X-76230Y744124D01*
X-76300Y745457D01*
X-76300Y746793D01*
X-76230Y748126D01*
X-76091Y749455D01*
X-75882Y750774D01*
X-75604Y752080D01*
X-75258Y753370D01*
X-74846Y754640D01*
X-74367Y755887D01*
X-73824Y757107D01*
X-73218Y758297D01*
X-72550Y759453D01*
X-71822Y760573D01*
X-71037Y761654D01*
X-70197Y762692D01*
X-69303Y763684D01*
X-68359Y764628D01*
X-67367Y765522D01*
X-66329Y766362D01*
X-65248Y767147D01*
X-64128Y767875D01*
X-62972Y768543D01*
X-61782Y769149D01*
X-60562Y769692D01*
X-59315Y770171D01*
X-58045Y770583D01*
X-56755Y770929D01*
X-55449Y771207D01*
X-54130Y771416D01*
X-52801Y771555D01*
X-51468Y771625D01*
X-50132Y771625D01*
X-48799Y771555D01*
X-47470Y771416D01*
X-46151Y771207D01*
X-44845Y770929D01*
X-43555Y770583D01*
X-42285Y770171D01*
X-41038Y769692D01*
X-39818Y769149D01*
X-38628Y768543D01*
X-37472Y767875D01*
X-36352Y767147D01*
X-35271Y766362D01*
X-34233Y765522D01*
X-33241Y764628D01*
X-32297Y763684D01*
X-31403Y762692D01*
X-30563Y761654D01*
X-29778Y760573D01*
X-29050Y759453D01*
X-28382Y758297D01*
X-27776Y757107D01*
X-27233Y755887D01*
X-26754Y754640D01*
X-26342Y753370D01*
X-25996Y752080D01*
X-25718Y750774D01*
X-25510Y749455D01*
X-25370Y748126D01*
X-25300Y746793D01*
X-25300Y745457D01*
X-228500Y745457D02*
X-228570Y744124D01*
X-228710Y742795D01*
X-228918Y741476D01*
X-229196Y740170D01*
X-229542Y738880D01*
X-229954Y737610D01*
X-230433Y736363D01*
X-230976Y735143D01*
X-231582Y733953D01*
X-232250Y732797D01*
X-232978Y731677D01*
X-233763Y730596D01*
X-234603Y729558D01*
X-235497Y728566D01*
X-236441Y727622D01*
X-237433Y726728D01*
X-238471Y725888D01*
X-239552Y725103D01*
X-240672Y724375D01*
X-241828Y723707D01*
X-243018Y723101D01*
X-244238Y722558D01*
X-245485Y722079D01*
X-246755Y721667D01*
X-248045Y721321D01*
X-249351Y721043D01*
X-250670Y720835D01*
X-251999Y720695D01*
X-253332Y720625D01*
X-254668Y720625D01*
X-256001Y720695D01*
X-257330Y720835D01*
X-258649Y721043D01*
X-259955Y721321D01*
X-261245Y721667D01*
X-262515Y722079D01*
X-263762Y722558D01*
X-264982Y723101D01*
X-266172Y723707D01*
X-267328Y724375D01*
X-268448Y725103D01*
X-269529Y725888D01*
X-270567Y726728D01*
X-271559Y727622D01*
X-272503Y728566D01*
X-273397Y729558D01*
X-274237Y730596D01*
X-275022Y731677D01*
X-275750Y732797D01*
X-276418Y733953D01*
X-277024Y735143D01*
X-277567Y736363D01*
X-278046Y737610D01*
X-278458Y738880D01*
X-278804Y740170D01*
X-279082Y741476D01*
X-279291Y742795D01*
X-279430Y744124D01*
X-279500Y745457D01*
X-279500Y746793D01*
X-279430Y748126D01*
X-279291Y749455D01*
X-279082Y750774D01*
X-278804Y752080D01*
X-278458Y753370D01*
X-278046Y754640D01*
X-277567Y755887D01*
X-277024Y757107D01*
X-276418Y758297D01*
X-275750Y759453D01*
X-275022Y760573D01*
X-274237Y761654D01*
X-273397Y762692D01*
X-272503Y763684D01*
X-271559Y764628D01*
X-270567Y765522D01*
X-269529Y766362D01*
X-268448Y767147D01*
X-267328Y767875D01*
X-266172Y768543D01*
X-264982Y769149D01*
X-263762Y769692D01*
X-262515Y770171D01*
X-261245Y770583D01*
X-259955Y770929D01*
X-258649Y771207D01*
X-257330Y771416D01*
X-256001Y771555D01*
X-254668Y771625D01*
X-253332Y771625D01*
X-251999Y771555D01*
X-250670Y771416D01*
X-249351Y771207D01*
X-248045Y770929D01*
X-246755Y770583D01*
X-245485Y770171D01*
X-244238Y769692D01*
X-243018Y769149D01*
X-241828Y768543D01*
X-240672Y767875D01*
X-239552Y767147D01*
X-238471Y766362D01*
X-237433Y765522D01*
X-236441Y764628D01*
X-235497Y763684D01*
X-234603Y762692D01*
X-233763Y761654D01*
X-232978Y760573D01*
X-232250Y759453D01*
X-231582Y758297D01*
X-230976Y757107D01*
X-230433Y755887D01*
X-229954Y754640D01*
X-229542Y753370D01*
X-229196Y752080D01*
X-228918Y750774D01*
X-228710Y749455D01*
X-228570Y748126D01*
X-228500Y746793D01*
X-228500Y745457D01*
X-41200Y577041D02*
X-41275Y575426D01*
X-41424Y573815D01*
X-41647Y572214D01*
X-41945Y570624D01*
X-42315Y569050D01*
X-42757Y567494D01*
X-43271Y565961D01*
X-43856Y564453D01*
X-44509Y562973D01*
X-45230Y561525D01*
X-46017Y560112D01*
X-46868Y558737D01*
X-47782Y557403D01*
X-48757Y556112D01*
X-49790Y554868D01*
X-50879Y553673D01*
X-52023Y552529D01*
X-53218Y551440D01*
X-54462Y550407D01*
X-55753Y549432D01*
X-57087Y548518D01*
X-58462Y547667D01*
X-59875Y546880D01*
X-61323Y546159D01*
X-62803Y545506D01*
X-64311Y544921D01*
X-65844Y544407D01*
X-67400Y543965D01*
X-68974Y543595D01*
X-70564Y543297D01*
X-72165Y543074D01*
X-73776Y542925D01*
X-75391Y542850D01*
X-77009Y542850D01*
X-78624Y542925D01*
X-80235Y543074D01*
X-81836Y543297D01*
X-83426Y543595D01*
X-85000Y543965D01*
X-86556Y544407D01*
X-88089Y544921D01*
X-89598Y545506D01*
X-91077Y546159D01*
X-92525Y546880D01*
X-93938Y547667D01*
X-95313Y548518D01*
X-96647Y549432D01*
X-97938Y550407D01*
X-99182Y551440D01*
X-100377Y552529D01*
X-101521Y553673D01*
X-102610Y554868D01*
X-103643Y556112D01*
X-104618Y557403D01*
X-105532Y558737D01*
X-106383Y560112D01*
X-107170Y561525D01*
X-107891Y562973D01*
X-108544Y564453D01*
X-109129Y565961D01*
X-109643Y567494D01*
X-110085Y569050D01*
X-110455Y570624D01*
X-110753Y572214D01*
X-110976Y573815D01*
X-111125Y575426D01*
X-111200Y577041D01*
X-111200Y578659D01*
X-111125Y580274D01*
X-110976Y581885D01*
X-110753Y583486D01*
X-110455Y585076D01*
X-110085Y586650D01*
X-109643Y588206D01*
X-109129Y589739D01*
X-108544Y591248D01*
X-107891Y592727D01*
X-107170Y594175D01*
X-106383Y595588D01*
X-105532Y596963D01*
X-104618Y598297D01*
X-103643Y599588D01*
X-102610Y600832D01*
X-101521Y602027D01*
X-100377Y603171D01*
X-99182Y604260D01*
X-97938Y605293D01*
X-96647Y606268D01*
X-95313Y607182D01*
X-93938Y608033D01*
X-92525Y608820D01*
X-91077Y609541D01*
X-89598Y610194D01*
X-88089Y610779D01*
X-86556Y611293D01*
X-85000Y611735D01*
X-83426Y612105D01*
X-81836Y612403D01*
X-80235Y612626D01*
X-78624Y612775D01*
X-77009Y612850D01*
X-75391Y612850D01*
X-73776Y612775D01*
X-72165Y612626D01*
X-70564Y612403D01*
X-68974Y612105D01*
X-67400Y611735D01*
X-65844Y611293D01*
X-64311Y610779D01*
X-62803Y610194D01*
X-61323Y609541D01*
X-59875Y608820D01*
X-58462Y608033D01*
X-57087Y607182D01*
X-55753Y606268D01*
X-54462Y605293D01*
X-53218Y604260D01*
X-52023Y603171D01*
X-50879Y602027D01*
X-49790Y600832D01*
X-48757Y599588D01*
X-47782Y598297D01*
X-46868Y596963D01*
X-46017Y595588D01*
X-45230Y594175D01*
X-44509Y592727D01*
X-43856Y591248D01*
X-43271Y589739D01*
X-42757Y588206D01*
X-42315Y586650D01*
X-41945Y585076D01*
X-41647Y583486D01*
X-41424Y581885D01*
X-41275Y580274D01*
X-41200Y578659D01*
X-41200Y577041D01*
X-193600Y577041D02*
X-193675Y575426D01*
X-193824Y573815D01*
X-194047Y572214D01*
X-194345Y570624D01*
X-194715Y569050D01*
X-195157Y567494D01*
X-195671Y565961D01*
X-196256Y564453D01*
X-196909Y562973D01*
X-197630Y561525D01*
X-198417Y560112D01*
X-199268Y558737D01*
X-200182Y557403D01*
X-201157Y556112D01*
X-202190Y554868D01*
X-203279Y553673D01*
X-204423Y552529D01*
X-205618Y551440D01*
X-206862Y550407D01*
X-208153Y549432D01*
X-209487Y548518D01*
X-210862Y547667D01*
X-212275Y546880D01*
X-213723Y546159D01*
X-215203Y545506D01*
X-216711Y544921D01*
X-218244Y544407D01*
X-219800Y543965D01*
X-221374Y543595D01*
X-222964Y543297D01*
X-224565Y543074D01*
X-226176Y542925D01*
X-227791Y542850D01*
X-229409Y542850D01*
X-231024Y542925D01*
X-232635Y543074D01*
X-234236Y543297D01*
X-235826Y543595D01*
X-237400Y543965D01*
X-238956Y544407D01*
X-240489Y544921D01*
X-241998Y545506D01*
X-243477Y546159D01*
X-244925Y546880D01*
X-246338Y547667D01*
X-247713Y548518D01*
X-249047Y549432D01*
X-250338Y550407D01*
X-251582Y551440D01*
X-252777Y552529D01*
X-253921Y553673D01*
X-255010Y554868D01*
X-256043Y556112D01*
X-257018Y557403D01*
X-257932Y558737D01*
X-258783Y560112D01*
X-259570Y561525D01*
X-260291Y562973D01*
X-260944Y564453D01*
X-261529Y565961D01*
X-262043Y567494D01*
X-262485Y569050D01*
X-262855Y570624D01*
X-263153Y572214D01*
X-263376Y573815D01*
X-263525Y575426D01*
X-263600Y577041D01*
X-263600Y578659D01*
X-263525Y580274D01*
X-263376Y581885D01*
X-263153Y583486D01*
X-262855Y585076D01*
X-262485Y586650D01*
X-262043Y588206D01*
X-261529Y589739D01*
X-260944Y591248D01*
X-260291Y592727D01*
X-259570Y594175D01*
X-258783Y595588D01*
X-257932Y596963D01*
X-257018Y598297D01*
X-256043Y599588D01*
X-255010Y600832D01*
X-253921Y602027D01*
X-252777Y603171D01*
X-251582Y604260D01*
X-250338Y605293D01*
X-249047Y606268D01*
X-247713Y607182D01*
X-246338Y608033D01*
X-244925Y608820D01*
X-243477Y609541D01*
X-241998Y610194D01*
X-240489Y610779D01*
X-238956Y611293D01*
X-237400Y611735D01*
X-235826Y612105D01*
X-234236Y612403D01*
X-232635Y612626D01*
X-231024Y612775D01*
X-229409Y612850D01*
X-227791Y612850D01*
X-226176Y612775D01*
X-224565Y612626D01*
X-222964Y612403D01*
X-221374Y612105D01*
X-219800Y611735D01*
X-218244Y611293D01*
X-216711Y610779D01*
X-215203Y610194D01*
X-213723Y609541D01*
X-212275Y608820D01*
X-210862Y608033D01*
X-209487Y607182D01*
X-208153Y606268D01*
X-206862Y605293D01*
X-205618Y604260D01*
X-204423Y603171D01*
X-203279Y602027D01*
X-202190Y600832D01*
X-201157Y599588D01*
X-200182Y598297D01*
X-199268Y596963D01*
X-198417Y595588D01*
X-197630Y594175D01*
X-196909Y592727D01*
X-196256Y591248D01*
X-195671Y589739D01*
X-195157Y588206D01*
X-194715Y586650D01*
X-194345Y585076D01*
X-194047Y583486D01*
X-193824Y581885D01*
X-193675Y580274D01*
X-193600Y578659D01*
X-193600Y577041D01*
X-27150Y434239D02*
X-27222Y432767D01*
X-27367Y431302D01*
X-27583Y429845D01*
X-27870Y428400D01*
X-28228Y426971D01*
X-28656Y425562D01*
X-29152Y424175D01*
X-29715Y422814D01*
X-30345Y421483D01*
X-31040Y420184D01*
X-31797Y418920D01*
X-32615Y417696D01*
X-33492Y416513D01*
X-34427Y415374D01*
X-35416Y414283D01*
X-36458Y413241D01*
X-37549Y412252D01*
X-38688Y411317D01*
X-39871Y410440D01*
X-41095Y409622D01*
X-42359Y408865D01*
X-43658Y408170D01*
X-44989Y407540D01*
X-46350Y406977D01*
X-47737Y406481D01*
X-49146Y406053D01*
X-50575Y405695D01*
X-52020Y405408D01*
X-53477Y405192D01*
X-54942Y405047D01*
X-56414Y404975D01*
X-57886Y404975D01*
X-59358Y405047D01*
X-60823Y405192D01*
X-62280Y405408D01*
X-63725Y405695D01*
X-65154Y406053D01*
X-66563Y406481D01*
X-67950Y406977D01*
X-69311Y407540D01*
X-70642Y408170D01*
X-71941Y408865D01*
X-73205Y409622D01*
X-74429Y410440D01*
X-75613Y411317D01*
X-76751Y412252D01*
X-77842Y413241D01*
X-78884Y414283D01*
X-79873Y415374D01*
X-80808Y416513D01*
X-81685Y417696D01*
X-82503Y418920D01*
X-83260Y420184D01*
X-83955Y421483D01*
X-84585Y422814D01*
X-85148Y424175D01*
X-85644Y425562D01*
X-86072Y426971D01*
X-86430Y428400D01*
X-86717Y429845D01*
X-86933Y431302D01*
X-87078Y432767D01*
X-87150Y434239D01*
X-87150Y435711D01*
X-87078Y437183D01*
X-86933Y438648D01*
X-86717Y440105D01*
X-86430Y441550D01*
X-86072Y442979D01*
X-85644Y444388D01*
X-85148Y445775D01*
X-84585Y447136D01*
X-83955Y448467D01*
X-83260Y449766D01*
X-82503Y451030D01*
X-81685Y452254D01*
X-80808Y453438D01*
X-79873Y454576D01*
X-78884Y455667D01*
X-77842Y456709D01*
X-76751Y457698D01*
X-75613Y458633D01*
X-74429Y459510D01*
X-73205Y460328D01*
X-71941Y461085D01*
X-70642Y461780D01*
X-69311Y462410D01*
X-67950Y462973D01*
X-66563Y463469D01*
X-65154Y463897D01*
X-63725Y464255D01*
X-62280Y464542D01*
X-60823Y464758D01*
X-59358Y464903D01*
X-57886Y464975D01*
X-56414Y464975D01*
X-54942Y464903D01*
X-53477Y464758D01*
X-52020Y464542D01*
X-50575Y464255D01*
X-49146Y463897D01*
X-47737Y463469D01*
X-46350Y462973D01*
X-44989Y462410D01*
X-43658Y461780D01*
X-42359Y461085D01*
X-41095Y460328D01*
X-39871Y459510D01*
X-38688Y458633D01*
X-37549Y457698D01*
X-36458Y456709D01*
X-35416Y455667D01*
X-34427Y454576D01*
X-33492Y453438D01*
X-32615Y452254D01*
X-31797Y451030D01*
X-31040Y449766D01*
X-30345Y448467D01*
X-29715Y447136D01*
X-29152Y445775D01*
X-28656Y444388D01*
X-28228Y442979D01*
X-27870Y441550D01*
X-27583Y440105D01*
X-27367Y438648D01*
X-27222Y437183D01*
X-27150Y435711D01*
X-27150Y434239D01*
X-193600Y434166D02*
X-193675Y432551D01*
X-193824Y430940D01*
X-194047Y429339D01*
X-194345Y427749D01*
X-194715Y426175D01*
X-195157Y424619D01*
X-195671Y423086D01*
X-196256Y421578D01*
X-196909Y420098D01*
X-197630Y418650D01*
X-198417Y417237D01*
X-199268Y415862D01*
X-200182Y414528D01*
X-201157Y413237D01*
X-202190Y411993D01*
X-203279Y410798D01*
X-204423Y409654D01*
X-205618Y408565D01*
X-206862Y407532D01*
X-208153Y406557D01*
X-209487Y405643D01*
X-210862Y404792D01*
X-212275Y404005D01*
X-213723Y403284D01*
X-215203Y402631D01*
X-216711Y402046D01*
X-218244Y401532D01*
X-219800Y401090D01*
X-221374Y400720D01*
X-222964Y400422D01*
X-224565Y400199D01*
X-226176Y400050D01*
X-227791Y399975D01*
X-229409Y399975D01*
X-231024Y400050D01*
X-232635Y400199D01*
X-234236Y400422D01*
X-235826Y400720D01*
X-237400Y401090D01*
X-238956Y401532D01*
X-240489Y402046D01*
X-241998Y402631D01*
X-243477Y403284D01*
X-244925Y404005D01*
X-246338Y404792D01*
X-247713Y405643D01*
X-249047Y406557D01*
X-250338Y407532D01*
X-251582Y408565D01*
X-252777Y409654D01*
X-253921Y410798D01*
X-255010Y411993D01*
X-256043Y413237D01*
X-257018Y414528D01*
X-257932Y415862D01*
X-258783Y417237D01*
X-259570Y418650D01*
X-260291Y420098D01*
X-260944Y421578D01*
X-261529Y423086D01*
X-262043Y424619D01*
X-262485Y426175D01*
X-262855Y427749D01*
X-263153Y429339D01*
X-263376Y430940D01*
X-263525Y432551D01*
X-263600Y434166D01*
X-263600Y435784D01*
X-263525Y437399D01*
X-263376Y439010D01*
X-263153Y440611D01*
X-262855Y442201D01*
X-262485Y443775D01*
X-262043Y445331D01*
X-261529Y446864D01*
X-260944Y448373D01*
X-260291Y449852D01*
X-259570Y451300D01*
X-258783Y452713D01*
X-257932Y454088D01*
X-257018Y455422D01*
X-256043Y456713D01*
X-255010Y457957D01*
X-253921Y459152D01*
X-252777Y460296D01*
X-251582Y461385D01*
X-250338Y462418D01*
X-249047Y463393D01*
X-247713Y464307D01*
X-246338Y465158D01*
X-244925Y465945D01*
X-243477Y466666D01*
X-241998Y467319D01*
X-240489Y467904D01*
X-238956Y468418D01*
X-237400Y468860D01*
X-235826Y469230D01*
X-234236Y469528D01*
X-232635Y469751D01*
X-231024Y469900D01*
X-229409Y469975D01*
X-227791Y469975D01*
X-226176Y469900D01*
X-224565Y469751D01*
X-222964Y469528D01*
X-221374Y469230D01*
X-219800Y468860D01*
X-218244Y468418D01*
X-216711Y467904D01*
X-215203Y467319D01*
X-213723Y466666D01*
X-212275Y465945D01*
X-210862Y465158D01*
X-209487Y464307D01*
X-208153Y463393D01*
X-206862Y462418D01*
X-205618Y461385D01*
X-204423Y460296D01*
X-203279Y459152D01*
X-202190Y457957D01*
X-201157Y456713D01*
X-200182Y455422D01*
X-199268Y454088D01*
X-198417Y452713D01*
X-197630Y451300D01*
X-196909Y449852D01*
X-196256Y448373D01*
X-195671Y446864D01*
X-195157Y445331D01*
X-194715Y443775D01*
X-194345Y442201D01*
X-194047Y440611D01*
X-193824Y439010D01*
X-193675Y437399D01*
X-193600Y435784D01*
X-193600Y434166D01*
X-122400Y291364D02*
X-122472Y289892D01*
X-122617Y288427D01*
X-122833Y286970D01*
X-123120Y285525D01*
X-123478Y284096D01*
X-123906Y282687D01*
X-124402Y281300D01*
X-124965Y279939D01*
X-125595Y278608D01*
X-126290Y277309D01*
X-127047Y276045D01*
X-127865Y274821D01*
X-128742Y273638D01*
X-129677Y272499D01*
X-130666Y271408D01*
X-131708Y270366D01*
X-132799Y269377D01*
X-133938Y268442D01*
X-135121Y267565D01*
X-136345Y266747D01*
X-137609Y265990D01*
X-138908Y265295D01*
X-140239Y264665D01*
X-141600Y264102D01*
X-142987Y263606D01*
X-144396Y263178D01*
X-145825Y262820D01*
X-147270Y262533D01*
X-148727Y262317D01*
X-150192Y262172D01*
X-151664Y262100D01*
X-153136Y262100D01*
X-154608Y262172D01*
X-156073Y262317D01*
X-157530Y262533D01*
X-158975Y262820D01*
X-160404Y263178D01*
X-161813Y263606D01*
X-163200Y264102D01*
X-164561Y264665D01*
X-165892Y265295D01*
X-167191Y265990D01*
X-168455Y266747D01*
X-169679Y267565D01*
X-170863Y268442D01*
X-172001Y269377D01*
X-173092Y270366D01*
X-174134Y271408D01*
X-175123Y272499D01*
X-176058Y273638D01*
X-176935Y274821D01*
X-177753Y276045D01*
X-178510Y277309D01*
X-179205Y278608D01*
X-179835Y279939D01*
X-180398Y281300D01*
X-180894Y282687D01*
X-181322Y284096D01*
X-181680Y285525D01*
X-181967Y286970D01*
X-182183Y288427D01*
X-182328Y289892D01*
X-182400Y291364D01*
X-182400Y292836D01*
X-182328Y294308D01*
X-182183Y295773D01*
X-181967Y297230D01*
X-181680Y298675D01*
X-181322Y300104D01*
X-180894Y301513D01*
X-180398Y302900D01*
X-179835Y304261D01*
X-179205Y305592D01*
X-178510Y306891D01*
X-177753Y308155D01*
X-176935Y309379D01*
X-176058Y310563D01*
X-175123Y311701D01*
X-174134Y312792D01*
X-173092Y313834D01*
X-172001Y314823D01*
X-170863Y315758D01*
X-169679Y316635D01*
X-168455Y317453D01*
X-167191Y318210D01*
X-165892Y318905D01*
X-164561Y319535D01*
X-163200Y320098D01*
X-161813Y320594D01*
X-160404Y321022D01*
X-158975Y321380D01*
X-157530Y321667D01*
X-156073Y321883D01*
X-154608Y322028D01*
X-153136Y322100D01*
X-151664Y322100D01*
X-150192Y322028D01*
X-148727Y321883D01*
X-147270Y321667D01*
X-145825Y321380D01*
X-144396Y321022D01*
X-142987Y320594D01*
X-141600Y320098D01*
X-140239Y319535D01*
X-138908Y318905D01*
X-137609Y318210D01*
X-136345Y317453D01*
X-135121Y316635D01*
X-133938Y315758D01*
X-132799Y314823D01*
X-131708Y313834D01*
X-130666Y312792D01*
X-129677Y311701D01*
X-128742Y310563D01*
X-127865Y309379D01*
X-127047Y308155D01*
X-126290Y306891D01*
X-125595Y305592D01*
X-124965Y304261D01*
X-124402Y302900D01*
X-123906Y301513D01*
X-123478Y300104D01*
X-123120Y298675D01*
X-122833Y297230D01*
X-122617Y295773D01*
X-122472Y294308D01*
X-122400Y292836D01*
X-122400Y291364D01*
X-27150Y291364D02*
X-27222Y289892D01*
X-27367Y288427D01*
X-27583Y286970D01*
X-27870Y285525D01*
X-28228Y284096D01*
X-28656Y282687D01*
X-29152Y281300D01*
X-29715Y279939D01*
X-30345Y278608D01*
X-31040Y277309D01*
X-31797Y276045D01*
X-32615Y274821D01*
X-33492Y273638D01*
X-34427Y272499D01*
X-35416Y271408D01*
X-36458Y270366D01*
X-37549Y269377D01*
X-38688Y268442D01*
X-39871Y267565D01*
X-41095Y266747D01*
X-42359Y265990D01*
X-43658Y265295D01*
X-44989Y264665D01*
X-46350Y264102D01*
X-47737Y263606D01*
X-49146Y263178D01*
X-50575Y262820D01*
X-52020Y262533D01*
X-53477Y262317D01*
X-54942Y262172D01*
X-56414Y262100D01*
X-57886Y262100D01*
X-59358Y262172D01*
X-60823Y262317D01*
X-62280Y262533D01*
X-63725Y262820D01*
X-65154Y263178D01*
X-66563Y263606D01*
X-67950Y264102D01*
X-69311Y264665D01*
X-70642Y265295D01*
X-71941Y265990D01*
X-73205Y266747D01*
X-74429Y267565D01*
X-75613Y268442D01*
X-76751Y269377D01*
X-77842Y270366D01*
X-78884Y271408D01*
X-79873Y272499D01*
X-80808Y273638D01*
X-81685Y274821D01*
X-82503Y276045D01*
X-83260Y277309D01*
X-83955Y278608D01*
X-84585Y279939D01*
X-85148Y281300D01*
X-85644Y282687D01*
X-86072Y284096D01*
X-86430Y285525D01*
X-86717Y286970D01*
X-86933Y288427D01*
X-87078Y289892D01*
X-87150Y291364D01*
X-87150Y292836D01*
X-87078Y294308D01*
X-86933Y295773D01*
X-86717Y297230D01*
X-86430Y298675D01*
X-86072Y300104D01*
X-85644Y301513D01*
X-85148Y302900D01*
X-84585Y304261D01*
X-83955Y305592D01*
X-83260Y306891D01*
X-82503Y308155D01*
X-81685Y309379D01*
X-80808Y310563D01*
X-79873Y311701D01*
X-78884Y312792D01*
X-77842Y313834D01*
X-76751Y314823D01*
X-75613Y315758D01*
X-74429Y316635D01*
X-73205Y317453D01*
X-71941Y318210D01*
X-70642Y318905D01*
X-69311Y319535D01*
X-67950Y320098D01*
X-66563Y320594D01*
X-65154Y321022D01*
X-63725Y321380D01*
X-62280Y321667D01*
X-60823Y321883D01*
X-59358Y322028D01*
X-57886Y322100D01*
X-56414Y322100D01*
X-54942Y322028D01*
X-53477Y321883D01*
X-52020Y321667D01*
X-50575Y321380D01*
X-49146Y321022D01*
X-47737Y320594D01*
X-46350Y320098D01*
X-44989Y319535D01*
X-43658Y318905D01*
X-42359Y318210D01*
X-41095Y317453D01*
X-39871Y316635D01*
X-38688Y315758D01*
X-37549Y314823D01*
X-36458Y313834D01*
X-35416Y312792D01*
X-34427Y311701D01*
X-33492Y310563D01*
X-32615Y309379D01*
X-31797Y308155D01*
X-31040Y306891D01*
X-30345Y305592D01*
X-29715Y304261D01*
X-29152Y302900D01*
X-28656Y301513D01*
X-28228Y300104D01*
X-27870Y298675D01*
X-27583Y297230D01*
X-27367Y295773D01*
X-27222Y294308D01*
X-27150Y292836D01*
X-27150Y291364D01*
X-217650Y291364D02*
X-217722Y289892D01*
X-217867Y288427D01*
X-218083Y286970D01*
X-218370Y285525D01*
X-218728Y284096D01*
X-219156Y282687D01*
X-219652Y281300D01*
X-220215Y279939D01*
X-220845Y278608D01*
X-221540Y277309D01*
X-222297Y276045D01*
X-223115Y274821D01*
X-223992Y273638D01*
X-224927Y272499D01*
X-225916Y271408D01*
X-226958Y270366D01*
X-228049Y269377D01*
X-229188Y268442D01*
X-230371Y267565D01*
X-231595Y266747D01*
X-232859Y265990D01*
X-234158Y265295D01*
X-235489Y264665D01*
X-236850Y264102D01*
X-238237Y263606D01*
X-239646Y263178D01*
X-241075Y262820D01*
X-242520Y262533D01*
X-243977Y262317D01*
X-245442Y262172D01*
X-246914Y262100D01*
X-248386Y262100D01*
X-249858Y262172D01*
X-251323Y262317D01*
X-252780Y262533D01*
X-254225Y262820D01*
X-255654Y263178D01*
X-257063Y263606D01*
X-258450Y264102D01*
X-259811Y264665D01*
X-261142Y265295D01*
X-262441Y265990D01*
X-263705Y266747D01*
X-264929Y267565D01*
X-266113Y268442D01*
X-267251Y269377D01*
X-268342Y270366D01*
X-269384Y271408D01*
X-270373Y272499D01*
X-271308Y273638D01*
X-272185Y274821D01*
X-273003Y276045D01*
X-273760Y277309D01*
X-274455Y278608D01*
X-275085Y279939D01*
X-275648Y281300D01*
X-276144Y282687D01*
X-276572Y284096D01*
X-276930Y285525D01*
X-277217Y286970D01*
X-277433Y288427D01*
X-277578Y289892D01*
X-277650Y291364D01*
X-277650Y292836D01*
X-277578Y294308D01*
X-277433Y295773D01*
X-277217Y297230D01*
X-276930Y298675D01*
X-276572Y300104D01*
X-276144Y301513D01*
X-275648Y302900D01*
X-275085Y304261D01*
X-274455Y305592D01*
X-273760Y306891D01*
X-273003Y308155D01*
X-272185Y309379D01*
X-271308Y310563D01*
X-270373Y311701D01*
X-269384Y312792D01*
X-268342Y313834D01*
X-267251Y314823D01*
X-266113Y315758D01*
X-264929Y316635D01*
X-263705Y317453D01*
X-262441Y318210D01*
X-261142Y318905D01*
X-259811Y319535D01*
X-258450Y320098D01*
X-257063Y320594D01*
X-255654Y321022D01*
X-254225Y321380D01*
X-252780Y321667D01*
X-251323Y321883D01*
X-249858Y322028D01*
X-248386Y322100D01*
X-246914Y322100D01*
X-245442Y322028D01*
X-243977Y321883D01*
X-242520Y321667D01*
X-241075Y321380D01*
X-239646Y321022D01*
X-238237Y320594D01*
X-236850Y320098D01*
X-235489Y319535D01*
X-234158Y318905D01*
X-232859Y318210D01*
X-231595Y317453D01*
X-230371Y316635D01*
X-229188Y315758D01*
X-228049Y314823D01*
X-226958Y313834D01*
X-225916Y312792D01*
X-224927Y311701D01*
X-223992Y310563D01*
X-223115Y309379D01*
X-222297Y308155D01*
X-221540Y306891D01*
X-220845Y305592D01*
X-220215Y304261D01*
X-219652Y302900D01*
X-219156Y301513D01*
X-218728Y300104D01*
X-218370Y298675D01*
X-218083Y297230D01*
X-217867Y295773D01*
X-217722Y294308D01*
X-217650Y292836D01*
X-217650Y291364D01*
X-27150Y148489D02*
X-27222Y147017D01*
X-27367Y145552D01*
X-27583Y144095D01*
X-27870Y142650D01*
X-28228Y141221D01*
X-28656Y139812D01*
X-29152Y138425D01*
X-29715Y137064D01*
X-30345Y135733D01*
X-31040Y134434D01*
X-31797Y133170D01*
X-32615Y131946D01*
X-33492Y130763D01*
X-34427Y129624D01*
X-35416Y128533D01*
X-36458Y127491D01*
X-37549Y126502D01*
X-38688Y125567D01*
X-39871Y124690D01*
X-41095Y123872D01*
X-42359Y123115D01*
X-43658Y122420D01*
X-44989Y121790D01*
X-46350Y121227D01*
X-47737Y120731D01*
X-49146Y120303D01*
X-50575Y119945D01*
X-52020Y119658D01*
X-53477Y119442D01*
X-54942Y119297D01*
X-56414Y119225D01*
X-57886Y119225D01*
X-59358Y119297D01*
X-60823Y119442D01*
X-62280Y119658D01*
X-63725Y119945D01*
X-65154Y120303D01*
X-66563Y120731D01*
X-67950Y121227D01*
X-69311Y121790D01*
X-70642Y122420D01*
X-71941Y123115D01*
X-73205Y123872D01*
X-74429Y124690D01*
X-75613Y125567D01*
X-76751Y126502D01*
X-77842Y127491D01*
X-78884Y128533D01*
X-79873Y129624D01*
X-80808Y130763D01*
X-81685Y131946D01*
X-82503Y133170D01*
X-83260Y134434D01*
X-83955Y135733D01*
X-84585Y137064D01*
X-85148Y138425D01*
X-85644Y139812D01*
X-86072Y141221D01*
X-86430Y142650D01*
X-86717Y144095D01*
X-86933Y145552D01*
X-87078Y147017D01*
X-87150Y148489D01*
X-87150Y149961D01*
X-87078Y151433D01*
X-86933Y152898D01*
X-86717Y154355D01*
X-86430Y155800D01*
X-86072Y157229D01*
X-85644Y158638D01*
X-85148Y160025D01*
X-84585Y161386D01*
X-83955Y162717D01*
X-83260Y164016D01*
X-82503Y165280D01*
X-81685Y166504D01*
X-80808Y167688D01*
X-79873Y168826D01*
X-78884Y169917D01*
X-77842Y170959D01*
X-76751Y171948D01*
X-75613Y172883D01*
X-74429Y173760D01*
X-73205Y174578D01*
X-71941Y175335D01*
X-70642Y176030D01*
X-69311Y176660D01*
X-67950Y177223D01*
X-66563Y177719D01*
X-65154Y178147D01*
X-63725Y178505D01*
X-62280Y178792D01*
X-60823Y179008D01*
X-59358Y179153D01*
X-57886Y179225D01*
X-56414Y179225D01*
X-54942Y179153D01*
X-53477Y179008D01*
X-52020Y178792D01*
X-50575Y178505D01*
X-49146Y178147D01*
X-47737Y177719D01*
X-46350Y177223D01*
X-44989Y176660D01*
X-43658Y176030D01*
X-42359Y175335D01*
X-41095Y174578D01*
X-39871Y173760D01*
X-38688Y172883D01*
X-37549Y171948D01*
X-36458Y170959D01*
X-35416Y169917D01*
X-34427Y168826D01*
X-33492Y167688D01*
X-32615Y166504D01*
X-31797Y165280D01*
X-31040Y164016D01*
X-30345Y162717D01*
X-29715Y161386D01*
X-29152Y160025D01*
X-28656Y158638D01*
X-28228Y157229D01*
X-27870Y155800D01*
X-27583Y154355D01*
X-27367Y152898D01*
X-27222Y151433D01*
X-27150Y149961D01*
X-27150Y148489D01*
X-122400Y148489D02*
X-122472Y147017D01*
X-122617Y145552D01*
X-122833Y144095D01*
X-123120Y142650D01*
X-123478Y141221D01*
X-123906Y139812D01*
X-124402Y138425D01*
X-124965Y137064D01*
X-125595Y135733D01*
X-126290Y134434D01*
X-127047Y133170D01*
X-127865Y131946D01*
X-128742Y130763D01*
X-129677Y129624D01*
X-130666Y128533D01*
X-131708Y127491D01*
X-132799Y126502D01*
X-133938Y125567D01*
X-135121Y124690D01*
X-136345Y123872D01*
X-137609Y123115D01*
X-138908Y122420D01*
X-140239Y121790D01*
X-141600Y121227D01*
X-142987Y120731D01*
X-144396Y120303D01*
X-145825Y119945D01*
X-147270Y119658D01*
X-148727Y119442D01*
X-150192Y119297D01*
X-151664Y119225D01*
X-153136Y119225D01*
X-154608Y119297D01*
X-156073Y119442D01*
X-157530Y119658D01*
X-158975Y119945D01*
X-160404Y120303D01*
X-161813Y120731D01*
X-163200Y121227D01*
X-164561Y121790D01*
X-165892Y122420D01*
X-167191Y123115D01*
X-168455Y123872D01*
X-169679Y124690D01*
X-170863Y125567D01*
X-172001Y126502D01*
X-173092Y127491D01*
X-174134Y128533D01*
X-175123Y129624D01*
X-176058Y130763D01*
X-176935Y131946D01*
X-177753Y133170D01*
X-178510Y134434D01*
X-179205Y135733D01*
X-179835Y137064D01*
X-180398Y138425D01*
X-180894Y139812D01*
X-181322Y141221D01*
X-181680Y142650D01*
X-181967Y144095D01*
X-182183Y145552D01*
X-182328Y147017D01*
X-182400Y148489D01*
X-182400Y149961D01*
X-182328Y151433D01*
X-182183Y152898D01*
X-181967Y154355D01*
X-181680Y155800D01*
X-181322Y157229D01*
X-180894Y158638D01*
X-180398Y160025D01*
X-179835Y161386D01*
X-179205Y162717D01*
X-178510Y164016D01*
X-177753Y165280D01*
X-176935Y166504D01*
X-176058Y167688D01*
X-175123Y168826D01*
X-174134Y169917D01*
X-173092Y170959D01*
X-172001Y171948D01*
X-170863Y172883D01*
X-169679Y173760D01*
X-168455Y174578D01*
X-167191Y175335D01*
X-165892Y176030D01*
X-164561Y176660D01*
X-163200Y177223D01*
X-161813Y177719D01*
X-160404Y178147D01*
X-158975Y178505D01*
X-157530Y178792D01*
X-156073Y179008D01*
X-154608Y179153D01*
X-153136Y179225D01*
X-151664Y179225D01*
X-150192Y179153D01*
X-148727Y179008D01*
X-147270Y178792D01*
X-145825Y178505D01*
X-144396Y178147D01*
X-142987Y177719D01*
X-141600Y177223D01*
X-140239Y176660D01*
X-138908Y176030D01*
X-137609Y175335D01*
X-136345Y174578D01*
X-135121Y173760D01*
X-133938Y172883D01*
X-132799Y171948D01*
X-131708Y170959D01*
X-130666Y169917D01*
X-129677Y168826D01*
X-128742Y167688D01*
X-127865Y166504D01*
X-127047Y165280D01*
X-126290Y164016D01*
X-125595Y162717D01*
X-124965Y161386D01*
X-124402Y160025D01*
X-123906Y158638D01*
X-123478Y157229D01*
X-123120Y155800D01*
X-122833Y154355D01*
X-122617Y152898D01*
X-122472Y151433D01*
X-122400Y149961D01*
X-122400Y148489D01*
X-217650Y148489D02*
X-217722Y147017D01*
X-217867Y145552D01*
X-218083Y144095D01*
X-218370Y142650D01*
X-218728Y141221D01*
X-219156Y139812D01*
X-219652Y138425D01*
X-220215Y137064D01*
X-220845Y135733D01*
X-221540Y134434D01*
X-222297Y133170D01*
X-223115Y131946D01*
X-223992Y130763D01*
X-224927Y129624D01*
X-225916Y128533D01*
X-226958Y127491D01*
X-228049Y126502D01*
X-229188Y125567D01*
X-230371Y124690D01*
X-231595Y123872D01*
X-232859Y123115D01*
X-234158Y122420D01*
X-235489Y121790D01*
X-236850Y121227D01*
X-238237Y120731D01*
X-239646Y120303D01*
X-241075Y119945D01*
X-242520Y119658D01*
X-243977Y119442D01*
X-245442Y119297D01*
X-246914Y119225D01*
X-248386Y119225D01*
X-249858Y119297D01*
X-251323Y119442D01*
X-252780Y119658D01*
X-254225Y119945D01*
X-255654Y120303D01*
X-257063Y120731D01*
X-258450Y121227D01*
X-259811Y121790D01*
X-261142Y122420D01*
X-262441Y123115D01*
X-263705Y123872D01*
X-264929Y124690D01*
X-266113Y125567D01*
X-267251Y126502D01*
X-268342Y127491D01*
X-269384Y128533D01*
X-270373Y129624D01*
X-271308Y130763D01*
X-272185Y131946D01*
X-273003Y133170D01*
X-273760Y134434D01*
X-274455Y135733D01*
X-275085Y137064D01*
X-275648Y138425D01*
X-276144Y139812D01*
X-276572Y141221D01*
X-276930Y142650D01*
X-277217Y144095D01*
X-277433Y145552D01*
X-277578Y147017D01*
X-277650Y148489D01*
X-277650Y149961D01*
X-277578Y151433D01*
X-277433Y152898D01*
X-277217Y154355D01*
X-276930Y155800D01*
X-276572Y157229D01*
X-276144Y158638D01*
X-275648Y160025D01*
X-275085Y161386D01*
X-274455Y162717D01*
X-273760Y164016D01*
X-273003Y165280D01*
X-272185Y166504D01*
X-271308Y167688D01*
X-270373Y168826D01*
X-269384Y169917D01*
X-268342Y170959D01*
X-267251Y171948D01*
X-266113Y172883D01*
X-264929Y173760D01*
X-263705Y174578D01*
X-262441Y175335D01*
X-261142Y176030D01*
X-259811Y176660D01*
X-258450Y177223D01*
X-257063Y177719D01*
X-255654Y178147D01*
X-254225Y178505D01*
X-252780Y178792D01*
X-251323Y179008D01*
X-249858Y179153D01*
X-248386Y179225D01*
X-246914Y179225D01*
X-245442Y179153D01*
X-243977Y179008D01*
X-242520Y178792D01*
X-241075Y178505D01*
X-239646Y178147D01*
X-238237Y177719D01*
X-236850Y177223D01*
X-235489Y176660D01*
X-234158Y176030D01*
X-232859Y175335D01*
X-231595Y174578D01*
X-230371Y173760D01*
X-229188Y172883D01*
X-228049Y171948D01*
X-226958Y170959D01*
X-225916Y169917D01*
X-224927Y168826D01*
X-223992Y167688D01*
X-223115Y166504D01*
X-222297Y165280D01*
X-221540Y164016D01*
X-220845Y162717D01*
X-220215Y161386D01*
X-219652Y160025D01*
X-219156Y158638D01*
X-218728Y157229D01*
X-218370Y155800D01*
X-218083Y154355D01*
X-217867Y152898D01*
X-217722Y151433D01*
X-217650Y149961D01*
X-217650Y148489D01*
X-91000Y1254476D02*
X-90932Y1253431D01*
X-90795Y1252392D01*
X-90590Y1251365D01*
X-90319Y1250353D01*
X-89983Y1249361D01*
X-89582Y1248393D01*
X-89118Y1247454D01*
X-88595Y1246546D01*
X-88013Y1245675D01*
X-87375Y1244844D01*
X-86684Y1244057D01*
X-85943Y1243316D01*
X-85156Y1242625D01*
X-84325Y1241988D01*
X-83454Y1241406D01*
X-82546Y1240882D01*
X-81607Y1240418D01*
X-80639Y1240017D01*
X-79647Y1239681D01*
X-78635Y1239410D01*
X-77608Y1239205D01*
X-76569Y1239069D01*
X-75524Y1239000D01*
X-74476Y1239000D01*
X-73431Y1239069D01*
X-72392Y1239205D01*
X-71365Y1239410D01*
X-70353Y1239681D01*
X-69361Y1240017D01*
X-68393Y1240418D01*
X-67454Y1240882D01*
X-66546Y1241406D01*
X-65675Y1241988D01*
X-64844Y1242625D01*
X-64057Y1243316D01*
X-63316Y1244057D01*
X-62625Y1244844D01*
X-61988Y1245675D01*
X-61406Y1246546D01*
X-60882Y1247454D01*
X-60418Y1248393D01*
X-60017Y1249361D01*
X-59681Y1250353D01*
X-59410Y1251365D01*
X-59205Y1252392D01*
X-59069Y1253431D01*
X-59000Y1254476D01*
X-59000Y1255524D01*
X-59069Y1256569D01*
X-59205Y1257608D01*
X-59410Y1258635D01*
X-59681Y1259647D01*
X-60017Y1260639D01*
X-60418Y1261607D01*
X-60882Y1262546D01*
X-61406Y1263454D01*
X-61988Y1264325D01*
X-62625Y1265156D01*
X-63316Y1265943D01*
X-64057Y1266684D01*
X-64844Y1267375D01*
X-65675Y1268013D01*
X-66546Y1268595D01*
X-67454Y1269118D01*
X-68393Y1269582D01*
X-69361Y1269983D01*
X-70353Y1270319D01*
X-71365Y1270590D01*
X-72392Y1270795D01*
X-73431Y1270932D01*
X-74476Y1271000D01*
X-75524Y1271000D01*
X-76569Y1270932D01*
X-77608Y1270795D01*
X-78635Y1270590D01*
X-79647Y1270319D01*
X-80639Y1269983D01*
X-81607Y1269582D01*
X-82546Y1269118D01*
X-83454Y1268595D01*
X-84325Y1268013D01*
X-85156Y1267375D01*
X-85943Y1266684D01*
X-86684Y1265943D01*
X-87375Y1265156D01*
X-88013Y1264325D01*
X-88595Y1263454D01*
X-89118Y1262546D01*
X-89582Y1261607D01*
X-89983Y1260639D01*
X-90319Y1259647D01*
X-90590Y1258635D01*
X-90795Y1257608D01*
X-90932Y1256569D01*
X-91000Y1255524D01*
X-91000Y1254476D01*
X-91000Y29476D02*
X-90932Y28431D01*
X-90795Y27392D01*
X-90590Y26365D01*
X-90319Y25353D01*
X-89983Y24361D01*
X-89582Y23393D01*
X-89118Y22454D01*
X-88595Y21546D01*
X-88013Y20675D01*
X-87375Y19844D01*
X-86684Y19057D01*
X-85943Y18316D01*
X-85156Y17625D01*
X-84325Y16988D01*
X-83454Y16406D01*
X-82546Y15882D01*
X-81607Y15418D01*
X-80639Y15017D01*
X-79647Y14681D01*
X-78635Y14410D01*
X-77608Y14205D01*
X-76569Y14069D01*
X-75524Y14000D01*
X-74476Y14000D01*
X-73431Y14069D01*
X-72392Y14205D01*
X-71365Y14410D01*
X-70353Y14681D01*
X-69361Y15017D01*
X-68393Y15418D01*
X-67454Y15882D01*
X-66546Y16406D01*
X-65675Y16988D01*
X-64844Y17625D01*
X-64057Y18316D01*
X-63316Y19057D01*
X-62625Y19844D01*
X-61988Y20675D01*
X-61406Y21546D01*
X-60882Y22454D01*
X-60418Y23393D01*
X-60017Y24361D01*
X-59681Y25353D01*
X-59410Y26365D01*
X-59205Y27392D01*
X-59069Y28431D01*
X-59000Y29476D01*
X-59000Y30524D01*
X-59069Y31569D01*
X-59205Y32608D01*
X-59410Y33635D01*
X-59681Y34647D01*
X-60017Y35639D01*
X-60418Y36607D01*
X-60882Y37546D01*
X-61406Y38454D01*
X-61988Y39325D01*
X-62625Y40156D01*
X-63316Y40943D01*
X-64057Y41684D01*
X-64844Y42375D01*
X-65675Y43013D01*
X-66546Y43595D01*
X-67454Y44118D01*
X-68393Y44582D01*
X-69361Y44983D01*
X-70353Y45319D01*
X-71365Y45590D01*
X-72392Y45795D01*
X-73431Y45932D01*
X-74476Y46000D01*
X-75524Y46000D01*
X-76569Y45932D01*
X-77608Y45795D01*
X-78635Y45590D01*
X-79647Y45319D01*
X-80639Y44983D01*
X-81607Y44582D01*
X-82546Y44118D01*
X-83454Y43595D01*
X-84325Y43013D01*
X-85156Y42375D01*
X-85943Y41684D01*
X-86684Y40943D01*
X-87375Y40156D01*
X-88013Y39325D01*
X-88595Y38454D01*
X-89118Y37546D01*
X-89582Y36607D01*
X-89983Y35639D01*
X-90319Y34647D01*
X-90590Y33635D01*
X-90795Y32608D01*
X-90932Y31569D01*
X-91000Y30524D01*
X-91000Y29476D01*
M02*
